<svg width="515" height="515" viewBox="0 0 515 515" fill="none" xmlns="http://www.w3.org/2000/svg">
<path d="M377.951 332.937C409.118 290.407 423.077 237.678 417.036 185.298C410.995 132.918 385.399 84.7499 345.37 50.4313C305.34 16.1127 253.828 -1.82594 201.14 0.204225C148.452 2.23439 98.4727 24.0837 61.2023 61.3808C23.9318 98.6779 2.11834 148.672 0.125879 201.362C-1.86659 254.051 16.1089 305.55 50.4562 345.556C84.8034 385.561 132.989 411.122 185.374 417.126C237.758 423.129 290.478 409.132 332.985 377.935H332.953C333.918 379.222 334.948 380.446 336.107 381.636L460.029 505.558C466.064 511.598 474.252 514.993 482.79 514.996C491.329 514.999 499.519 511.61 505.558 505.574C511.598 499.539 514.993 491.352 514.996 482.813C514.999 474.275 511.61 466.085 505.574 460.045L381.652 336.123C380.502 334.958 379.264 333.882 377.951 332.905V332.937ZM386.255 209.208C386.255 232.456 381.676 255.477 372.78 276.955C363.883 298.433 350.843 317.949 334.404 334.388C317.965 350.827 298.449 363.867 276.971 372.764C255.493 381.66 232.472 386.239 209.224 386.239C185.976 386.239 162.955 381.66 141.477 372.764C119.999 363.867 100.483 350.827 84.044 334.388C67.6051 317.949 54.5651 298.433 45.6684 276.955C36.7718 255.477 32.1927 232.456 32.1927 209.208C32.1927 162.256 50.8442 117.228 84.044 84.0281C117.244 50.8283 162.272 32.1768 209.224 32.1768C256.176 32.1768 301.204 50.8283 334.404 84.0281C367.604 117.228 386.255 162.256 386.255 209.208V209.208Z" fill="white"/>
</svg>
